<svg xmlns="http://www.w3.org/2000/svg" viewBox="0 0 814 300" font-family="ui-monospace,SFMono-Regular,Menlo,Consolas,monospace" role="img" aria-label="Per-provider 14-day availability from up1d"><text x="124" y="10" text-anchor="end" style="font:11px ui-monospace,SFMono-Regular,Menlo,Consolas,monospace;fill:#6e7681">provider</text><text x="168" y="10" style="font:11px ui-monospace,SFMono-Regular,Menlo,Consolas,monospace;fill:#6e7681">daily up1d, 14 d</text><text x="580" y="10" style="font:11px ui-monospace,SFMono-Regular,Menlo,Consolas,monospace;fill:#6e7681">mean</text><text x="664" y="10" style="font:11px ui-monospace,SFMono-Regular,Menlo,Consolas,monospace;fill:#6e7681">worst day</text><circle cx="145" cy="37.0" r="5" fill="#3fb884"/><text x="123" y="41.5" text-anchor="end" style="font:12.5px ui-monospace,SFMono-Regular,Menlo,Consolas,monospace;fill:#8b949e">OpenAI</text><polyline points="168.0,28.4 197.1,29.5 226.2,29.2 255.2,29.5 284.3,27.2 313.4,26.8 342.5,27.5 371.5,27.2 400.6,27.1 429.7,27.7 458.8,27.9 487.8,26.9 516.9,26.7 546.0,26.8" fill="none" stroke="#93a0f2" stroke-width="2" stroke-linejoin="round"/><text x="580" y="41.5" style="font:13px ui-monospace,SFMono-Regular,Menlo,Consolas,monospace;fill:#e6edf3">99.47%</text><text x="642" y="40.5" style="font:12px ui-monospace,SFMono-Regular,Menlo,Consolas,monospace;fill:#6e7681">98.6%</text><circle cx="145" cy="71.0" r="5" fill="#d9a63e"/><text x="123" y="75.5" text-anchor="end" style="font:12.5px ui-monospace,SFMono-Regular,Menlo,Consolas,monospace;fill:#8b949e">Google</text><polyline points="168.0,74.3 197.1,76.6 226.2,80.0 255.2,79.9 284.3,79.2 313.4,76.9 342.5,79.6 371.5,75.9 400.6,67.9 429.7,66.1 458.8,66.2 487.8,66.2 516.9,66.3 546.0,66.1" fill="none" stroke="#93a0f2" stroke-width="2" stroke-linejoin="round"/><text x="580" y="75.5" style="font:13px ui-monospace,SFMono-Regular,Menlo,Consolas,monospace;fill:#e6edf3">94.11%</text><text x="642" y="74.5" style="font:12px ui-monospace,SFMono-Regular,Menlo,Consolas,monospace;fill:#e36a6a">90.7%</text><circle cx="145" cy="105.0" r="5" fill="#3fb884"/><text x="123" y="109.5" text-anchor="end" style="font:12.5px ui-monospace,SFMono-Regular,Menlo,Consolas,monospace;fill:#8b949e">DeepInfra</text><polyline points="168.0,101.5 197.1,100.1 226.2,100.4 255.2,99.6 284.3,99.0 313.4,96.8 342.5,98.3 371.5,102.2 400.6,102.9 429.7,101.4 458.8,99.1 487.8,96.8 516.9,96.9 546.0,96.7" fill="none" stroke="#93a0f2" stroke-width="2" stroke-linejoin="round"/><text x="580" y="109.5" style="font:13px ui-monospace,SFMono-Regular,Menlo,Consolas,monospace;fill:#e6edf3">97.71%</text><text x="642" y="108.5" style="font:12px ui-monospace,SFMono-Regular,Menlo,Consolas,monospace;fill:#e36a6a">96.1%</text><circle cx="145" cy="139.0" r="5" fill="#3fb884"/><text x="123" y="143.5" text-anchor="end" style="font:12.5px ui-monospace,SFMono-Regular,Menlo,Consolas,monospace;fill:#8b949e">Azure</text><polyline points="168.0,133.1 197.1,131.4 226.2,131.2 255.2,131.2 284.3,130.0 313.4,129.4 342.5,130.2 371.5,130.5 400.6,131.1 429.7,130.8 458.8,130.8 487.8,129.2 516.9,130.0 546.0,131.1" fill="none" stroke="#93a0f2" stroke-width="2" stroke-linejoin="round"/><text x="580" y="143.5" style="font:13px ui-monospace,SFMono-Regular,Menlo,Consolas,monospace;fill:#e6edf3">99.00%</text><text x="642" y="142.5" style="font:12px ui-monospace,SFMono-Regular,Menlo,Consolas,monospace;fill:#e36a6a">97.9%</text><circle cx="145" cy="173.0" r="5" fill="#d9a63e"/><text x="123" y="177.5" text-anchor="end" style="font:12.5px ui-monospace,SFMono-Regular,Menlo,Consolas,monospace;fill:#8b949e">Novita</text><polyline points="168.0,168.0 197.1,168.3 226.2,169.0 255.2,168.0 284.3,167.4 313.4,166.0 342.5,166.1 371.5,167.4 400.6,167.6 429.7,167.7 458.8,167.5 487.8,167.6 516.9,167.0 546.0,167.5" fill="none" stroke="#93a0f2" stroke-width="2" stroke-linejoin="round"/><text x="580" y="177.5" style="font:13px ui-monospace,SFMono-Regular,Menlo,Consolas,monospace;fill:#e6edf3">97.66%</text><text x="642" y="176.5" style="font:12px ui-monospace,SFMono-Regular,Menlo,Consolas,monospace;fill:#e36a6a">97.0%</text><circle cx="145" cy="207.0" r="5" fill="#d9a63e"/><text x="123" y="211.5" text-anchor="end" style="font:12.5px ui-monospace,SFMono-Regular,Menlo,Consolas,monospace;fill:#8b949e">Alibaba</text><polyline points="168.0,197.2 197.1,197.2 226.2,197.4 255.2,197.4 284.3,197.5 313.4,197.5 342.5,197.4 371.5,197.4 400.6,197.4 429.7,197.4 458.8,198.6 487.8,200.4 516.9,202.3 546.0,202.1" fill="none" stroke="#93a0f2" stroke-width="2" stroke-linejoin="round"/><text x="580" y="211.5" style="font:13px ui-monospace,SFMono-Regular,Menlo,Consolas,monospace;fill:#e6edf3">99.16%</text><text x="642" y="210.5" style="font:12px ui-monospace,SFMono-Regular,Menlo,Consolas,monospace;fill:#e36a6a">97.3%</text><circle cx="145" cy="241.0" r="5" fill="#3fb884"/><text x="123" y="245.5" text-anchor="end" style="font:12.5px ui-monospace,SFMono-Regular,Menlo,Consolas,monospace;fill:#8b949e">Amazon Bedrock</text><polyline points="168.0,235.3 197.1,236.1 226.2,236.2 255.2,234.4 284.3,233.2 313.4,232.9 342.5,232.8 371.5,233.8 400.6,234.2 429.7,235.3 458.8,233.5 487.8,236.0 516.9,239.1 546.0,239.2" fill="none" stroke="#93a0f2" stroke-width="2" stroke-linejoin="round"/><text x="580" y="245.5" style="font:13px ui-monospace,SFMono-Regular,Menlo,Consolas,monospace;fill:#e6edf3">97.84%</text><text x="642" y="244.5" style="font:12px ui-monospace,SFMono-Regular,Menlo,Consolas,monospace;fill:#e36a6a">95.9%</text><circle cx="145" cy="275.0" r="5" fill="#d9a63e"/><text x="123" y="279.5" text-anchor="end" style="font:12.5px ui-monospace,SFMono-Regular,Menlo,Consolas,monospace;fill:#8b949e">Google AI Studio</text><polyline points="168.0,265.4 197.1,265.3 226.2,265.2 255.2,265.3 284.3,265.2 313.4,264.9 342.5,265.1 371.5,265.0 400.6,264.9 429.7,264.9 458.8,265.1 487.8,265.1 516.9,265.0 546.0,265.3" fill="none" stroke="#93a0f2" stroke-width="2" stroke-linejoin="round"/><text x="580" y="279.5" style="font:13px ui-monospace,SFMono-Regular,Menlo,Consolas,monospace;fill:#e6edf3">99.76%</text><text x="642" y="278.5" style="font:12px ui-monospace,SFMono-Regular,Menlo,Consolas,monospace;fill:#6e7681">99.6%</text></svg>